<svg width="760" height="348" viewBox="0 0 760 348" fill="none" xmlns="http://www.w3.org/2000/svg">
<g id="logo_buscaClima">
<path id="sol" d="M156.155 77L162.41 90.711L173.435 80.4372L173.967 95.498L188.084 90.2256L182.812 104.343L197.873 104.875L187.599 115.9L201.31 122.155L187.599 128.41L197.873 139.435L182.812 139.967L188.084 154.084L173.967 148.812L173.435 163.873L162.41 153.599L156.155 167.31L149.9 153.599L138.875 163.873L138.343 148.812L124.226 154.084L129.498 139.967L114.437 139.435L124.711 128.41L111 122.155L124.711 115.9L114.437 104.875L129.498 104.343L124.226 90.2256L138.343 95.498L138.875 80.4372L149.9 90.711L156.155 77Z" fill="url(#paint0_radial)"/>
<g id="efeito de luz sol">
<mask id="mask0" mask-type="alpha" maskUnits="userSpaceOnUse" x="111" y="73" width="91" height="91">
<g id="sol_2">
<path id="Star 1" d="M156.199 73.2905L156.208 118.401L173.479 76.7277L156.224 118.408L188.128 86.5161L156.236 118.42L197.917 101.165L156.243 118.437L201.354 118.445L156.243 118.454L197.917 135.726L156.236 118.471L188.128 150.375L156.224 118.483L173.479 160.163L156.208 118.49L156.199 163.6L156.19 118.49L138.919 160.163L156.174 118.483L124.269 150.375L156.161 118.471L114.481 135.726L156.155 118.454L111.044 118.445L156.155 118.437L114.481 101.165L156.161 118.42L124.269 86.5161L156.174 118.408L138.919 76.7277L156.19 118.401L156.199 73.2905Z" fill="url(#paint1_radial)"/>
<circle id="Ellipse 1" cx="156.199" cy="117.796" r="31.1861" fill="url(#paint2_radial)"/>
</g>
</mask>
<g mask="url(#mask0)">
<g id="Ellipse 6" style="mix-blend-mode:soft-light">
<path d="M112.084 182.741C103.752 177.108 99.4862 166.195 100.226 152.401C100.966 138.608 106.65 123.064 116.029 109.19C125.408 95.3156 137.713 84.247 150.236 78.4192C162.76 72.5914 174.477 72.4817 182.809 78.1143L147.447 130.428L112.084 182.741Z" fill="url(#paint3_linear)" fill-opacity="0.5"/>
</g>
</g>
</g>
<g id="nuvem_sombra" filter="url(#filter0_d)">
<path id="nuvem" fill-rule="evenodd" clip-rule="evenodd" d="M141.601 124.254C138.106 120.67 133.224 118.446 127.823 118.446C121.139 118.446 115.251 121.853 111.801 127.026C109.873 126.378 107.809 126.027 105.663 126.027C95.0339 126.027 86.4177 134.643 86.4177 145.272C86.4177 154.118 92.3862 161.57 100.516 163.821C103.286 171.049 110.29 176.18 118.492 176.18C124.525 176.18 129.91 173.404 133.438 169.06C138.979 175.434 148.29 177.605 156.276 173.778C157.084 173.391 157.852 172.955 158.579 172.475C164.054 176.162 171.282 176.934 177.664 173.876C187.249 169.282 191.295 157.788 186.702 148.204C183.813 142.176 178.195 138.338 172.039 137.463C171.791 135.444 171.215 133.431 170.288 131.495C165.695 121.911 154.201 117.864 144.616 122.458C143.54 122.973 142.533 123.576 141.601 124.254Z" fill="url(#paint4_radial)"/>
</g>
<g id="efeito fe luz nuvem">
<mask id="mask1" mask-type="alpha" maskUnits="userSpaceOnUse" x="86" y="118" width="103" height="87">
<g id="nuvem com sombra">
<path id="sombra" fill-rule="evenodd" clip-rule="evenodd" d="M133.021 203.104C138.562 204.631 147.873 205.151 155.859 204.235C156.666 204.142 157.435 204.037 158.162 203.923C163.636 204.806 170.864 204.991 177.246 204.258C186.831 203.158 190.877 200.404 186.284 198.108C183.395 196.664 177.777 195.745 171.622 195.535C171.373 195.051 170.798 194.569 169.87 194.105C165.277 191.809 153.783 190.84 144.198 191.94C143.122 192.064 142.115 192.208 141.183 192.37C137.688 191.512 132.807 190.979 127.406 190.979C120.721 190.979 114.833 191.795 111.383 193.035C109.455 192.879 107.391 192.795 105.245 192.795C94.6162 192.795 86 194.859 86 197.406C86 199.525 91.9686 201.31 100.098 201.849C102.869 203.581 109.872 204.81 118.075 204.81C124.108 204.81 129.492 204.145 133.021 203.104Z" fill="url(#paint5_radial)"/>
<path id="nuvem_2" fill-rule="evenodd" clip-rule="evenodd" d="M141.585 124.254C138.09 120.67 133.209 118.446 127.808 118.446C121.124 118.446 115.235 121.853 111.785 127.027C109.858 126.378 107.793 126.027 105.647 126.027C95.0186 126.027 86.4023 134.643 86.4023 145.272C86.4023 154.118 92.3709 161.57 100.501 163.821C103.271 171.049 110.275 176.18 118.477 176.18C124.51 176.18 129.895 173.404 133.423 169.06C138.964 175.434 148.275 177.605 156.261 173.778C157.069 173.391 157.837 172.955 158.564 172.475C164.038 176.162 171.266 176.934 177.648 173.876C187.233 169.282 191.28 157.789 186.686 148.204C183.798 142.176 178.18 138.338 172.024 137.463C171.775 135.444 171.2 133.431 170.273 131.496C165.679 121.911 154.186 117.864 144.601 122.458C143.524 122.973 142.518 123.576 141.585 124.254Z" fill="url(#paint6_radial)"/>
</g>
</mask>
<g mask="url(#mask1)">
<g id="Ellipse 6_2" style="mix-blend-mode:soft-light">
<path d="M112.069 182.741C103.736 177.108 99.471 166.195 100.211 152.401C100.951 138.608 106.635 123.064 116.014 109.19C125.393 95.3156 137.698 84.247 150.221 78.4192C162.745 72.5914 174.462 72.4817 182.794 78.1143L147.432 130.428L112.069 182.741Z" fill="url(#paint7_linear)" fill-opacity="0.5"/>
</g>
</g>
</g>
<g id="luneta">
<path id="luz_circulo" d="M114.611 222.018C108.171 218.718 100.876 211.282 96.3367 205.861C95.6565 205.049 96.6015 203.859 97.5882 204.245C108.923 208.675 126.795 210.915 141.338 209.907C154.75 208.976 167.977 208.224 181.519 202.331L214.394 189.237C215.172 188.928 215.951 189.649 215.682 190.442C215.077 192.226 214.116 194.853 213.131 196.712C211.504 199.784 207.547 206.657 204.736 209.568C201.924 212.479 195.929 217.109 193.282 219.06C187.208 223.158 173.369 231.228 163.413 232.352C153.457 233.476 145.79 232.693 137.905 231.045C130.021 229.397 122.549 226.086 114.611 222.018Z" fill="url(#paint8_radial)" fill-opacity="0.6"/>
<g id="circulos" filter="url(#filter1_d)">
<g id="circulo tras" filter="url(#filter2_f)">
<path d="M242.931 119.074C250.618 170.368 215.341 218.119 164.209 225.782C113.077 233.445 65.3514 198.133 57.6641 146.839C49.9768 95.5442 85.2546 47.7936 136.386 40.1307C187.518 32.4678 235.244 67.779 242.931 119.074Z" stroke="#003946" stroke-width="35"/>
</g>
<path id="circulo frente" d="M240.507 111.973C248.32 164.103 212.467 212.64 160.491 220.429C108.515 228.219 60.0093 192.325 52.1967 140.194C44.3842 88.0643 80.2367 39.5274 132.213 31.738C184.189 23.9485 232.695 59.8429 240.507 111.973Z" stroke="#00495A" stroke-width="30"/>
</g>
<g id="cabo" filter="url(#filter3_d)">
<path id="cabo_2" d="M383.71 275.101L247.57 188.09C246.775 187.582 245.897 187.566 245.113 187.76C243.673 188.116 242.679 189.347 241.779 190.526C238.945 194.24 235.141 199.289 232.175 203.377C229.742 206.731 227.873 209.439 227.565 210.234C227.294 210.932 227.245 211.674 227.319 212.378C227.537 214.438 229.136 215.987 230.729 217.313L311.234 284.34C316.706 289.145 331.029 301.428 344.553 312.122C361.458 325.49 371.55 330.143 384.255 326.292C393.406 323.518 398.876 312.421 401 305.647C401.429 304.28 401.636 302.849 401.53 301.42C400.62 289.081 389.477 278.839 383.71 275.101Z" fill="#003946"/>
<path id="luz do cabo" d="M265.175 229.909C256.372 223.765 238.099 210.927 235.438 208.73C232.967 206.69 232.598 204.895 232.736 204.102C235.484 199.959 241.474 191.08 243.451 188.707C245.243 186.556 248.177 188.636 250.582 190.07L250.624 190.095C250.743 190.166 250.844 190.228 250.96 190.302C253.637 192.009 289.556 214.914 300.597 222.005C312.067 229.372 337.971 246.583 362.955 261.985C387.94 277.387 389.08 278.514 394.198 284.562C398.739 289.928 401.047 295.714 401.61 299.126C401.738 299.906 401.658 300.698 401.493 301.471C401.28 302.475 400.929 303.461 400.241 304.223C397.83 306.896 392.34 310.056 383.714 307.551C373.689 304.64 366.144 300.557 363.625 298.879L339.274 283.382L306.986 260.313L285.629 245.341L265.175 229.909Z" fill="#286065" fill-opacity="0.58"/>
<path id="listra 1" d="M252.027 235.125C253.203 222.249 264.381 208.326 269.85 202.946C269.869 202.927 269.885 202.909 269.9 202.888C270.042 202.696 270.303 202.634 270.516 202.743L272.602 203.809L279.114 208.35C266.657 220.341 262.277 236.51 261.644 243.095L252.027 235.125Z" fill="#BCA657"/>
<path id="listra 2" d="M236.128 221.982C237.252 210.058 247.753 197.148 252.888 192.157C252.906 192.14 252.921 192.123 252.935 192.103C253.069 191.924 253.312 191.867 253.511 191.968L255.466 192.951L261.561 197.144C249.865 208.269 245.732 223.246 245.128 229.344L236.128 221.982Z" fill="#BCA657"/>
<path id="reflexo" d="M382.847 289.239C372.024 278.443 315.37 241.054 283.863 220.792C281.282 219.133 279.781 216.19 282.693 217.157C288.115 218.959 299.312 225.177 306.222 229.275L341.678 251.869C356.27 260.608 385.69 279.671 386.642 286.019C387.213 289.834 386.627 291.127 385.798 291.31C384.561 291.582 383.743 290.133 382.847 289.239Z" fill="#9EB7AE" fill-opacity="0.38"/>
</g>
<g id="Vector 1" filter="url(#filter4_b)">
<path d="M81.2194 73.2467C86.9464 65.4429 98.9906 57.3493 106.234 53.3015C107.005 52.8709 107.889 53.5965 107.642 54.4443C104.126 66.5439 97.8269 91.1255 96.2353 108.655C94.5368 127.36 96.5828 147.928 97.8181 155.873L101.518 197.916C101.586 198.689 100.791 199.236 100.101 198.88C98.1379 197.866 94.7638 196.037 92.5213 194.353C89.1924 191.854 81.8063 185.887 78.893 182.019C75.9797 178.151 71.635 170.199 69.8268 166.707C66.126 158.763 59.1938 140.901 59.7484 128.933C60.3031 116.964 62.6803 108.057 66.1241 99.0562C69.5678 90.0555 74.9017 81.8554 81.2194 73.2467Z" fill="url(#paint9_radial)" fill-opacity="0.3"/>
</g>
<path id="Vector 2" d="M82.3767 78.9808C86.5172 73.0442 94.8653 66.8261 100.844 63.0656C101.741 62.5017 102.791 63.5981 102.276 64.5234C96.349 75.1623 91.6972 92.5915 90.7132 107.163C89.8059 120.6 88.7475 133.828 92.7314 148.074L101.201 182.491C101.402 183.305 100.58 183.978 99.8309 183.602C98.1485 182.756 95.6846 181.443 93.9816 180.212C91.1646 178.176 84.9066 173.306 82.4109 170.117C79.9151 166.928 76.1534 160.343 74.5846 157.449C71.3592 150.86 65.2636 136.02 65.5085 125.987C65.7535 115.954 67.5714 108.453 70.2756 100.856C72.9798 93.2587 77.2724 86.2993 82.3767 78.9808Z" fill="url(#paint10_radial)" fill-opacity="0.9"/>
</g>
<g id="Clima" filter="url(#filter5_d)">
<text fill="url(#paint11_linear)" xml:space="preserve" style="white-space: pre" font-family="SeoulHangang" font-size="150" letter-spacing="0em"><tspan x="366.631" y="271.865">Clima</tspan></text>
<text stroke="#729FBC" xml:space="preserve" style="white-space: pre" font-family="SeoulHangang" font-size="150" letter-spacing="0em"><tspan x="366.631" y="271.865">Clima</tspan></text>
</g>
<g id="Busca" filter="url(#filter6_d)">
<text fill="url(#paint12_radial)" xml:space="preserve" style="white-space: pre" font-family="SeoulHangang" font-size="140" letter-spacing="0em"><tspan x="263" y="136.791">Busca</tspan></text>
<text stroke="#EC9F19" xml:space="preserve" style="white-space: pre" font-family="SeoulHangang" font-size="140" letter-spacing="0em"><tspan x="263" y="136.791">Busca</tspan></text>
</g>
</g>
<defs>
<filter id="filter0_d" x="76.4177" y="105.446" width="130.179" height="85.7346" filterUnits="userSpaceOnUse" color-interpolation-filters="sRGB">
<feFlood flood-opacity="0" result="BackgroundImageFix"/>
<feColorMatrix in="SourceAlpha" type="matrix" values="0 0 0 0 0 0 0 0 0 0 0 0 0 0 0 0 0 0 127 0" result="hardAlpha"/>
<feOffset dx="4" dy="1"/>
<feGaussianBlur stdDeviation="7"/>
<feComposite in2="hardAlpha" operator="out"/>
<feColorMatrix type="matrix" values="0 0 0 0 0 0 0 0 0 0 0 0 0 0 0 0 0 0 0.25 0"/>
<feBlend mode="normal" in2="BackgroundImageFix" result="effect1_dropShadow"/>
<feBlend mode="normal" in="SourceGraphic" in2="effect1_dropShadow" result="shape"/>
</filter>
<filter id="filter1_d" x="11" y="0.56979" width="269.743" height="276.995" filterUnits="userSpaceOnUse" color-interpolation-filters="sRGB">
<feFlood flood-opacity="0" result="BackgroundImageFix"/>
<feColorMatrix in="SourceAlpha" type="matrix" values="0 0 0 0 0 0 0 0 0 0 0 0 0 0 0 0 0 0 127 0" result="hardAlpha"/>
<feOffset dx="-3" dy="11"/>
<feGaussianBlur stdDeviation="3.5"/>
<feComposite in2="hardAlpha" operator="out"/>
<feColorMatrix type="matrix" values="0 0 0 0 0 0 0 0 0 0 0 0 0 0 0 0 0 0 0.25 0"/>
<feBlend mode="normal" in2="BackgroundImageFix" result="effect1_dropShadow"/>
<feBlend mode="normal" in="SourceGraphic" in2="effect1_dropShadow" result="shape"/>
</filter>
<filter id="filter2_f" x="22.8523" y="5.34768" width="254.891" height="255.217" filterUnits="userSpaceOnUse" color-interpolation-filters="sRGB">
<feFlood flood-opacity="0" result="BackgroundImageFix"/>
<feBlend mode="normal" in="SourceGraphic" in2="BackgroundImageFix" result="shape"/>
<feGaussianBlur stdDeviation="0.5" result="effect1_foregroundBlur"/>
</filter>
<filter id="filter3_d" x="220.288" y="187.645" width="186.385" height="154.953" filterUnits="userSpaceOnUse" color-interpolation-filters="sRGB">
<feFlood flood-opacity="0" result="BackgroundImageFix"/>
<feColorMatrix in="SourceAlpha" type="matrix" values="0 0 0 0 0 0 0 0 0 0 0 0 0 0 0 0 0 0 127 0" result="hardAlpha"/>
<feOffset dx="-1" dy="9"/>
<feGaussianBlur stdDeviation="3"/>
<feComposite in2="hardAlpha" operator="out"/>
<feColorMatrix type="matrix" values="0 0 0 0 0 0 0 0 0 0 0 0 0 0 0 0 0 0 0.25 0"/>
<feBlend mode="normal" in2="BackgroundImageFix" result="effect1_dropShadow"/>
<feBlend mode="normal" in="SourceGraphic" in2="effect1_dropShadow" result="shape"/>
</filter>
<filter id="filter4_b" x="58.7171" y="52.1735" width="49.9674" height="147.817" filterUnits="userSpaceOnUse" color-interpolation-filters="sRGB">
<feFlood flood-opacity="0" result="BackgroundImageFix"/>
<feGaussianBlur in="BackgroundImage" stdDeviation="0.5"/>
<feComposite in2="SourceAlpha" operator="in" result="effect1_backgroundBlur"/>
<feBlend mode="normal" in="SourceGraphic" in2="effect1_backgroundBlur" result="shape"/>
</filter>
<filter id="filter5_d" x="369.731" y="166.365" width="376.03" height="127.8" filterUnits="userSpaceOnUse" color-interpolation-filters="sRGB">
<feFlood flood-opacity="0" result="BackgroundImageFix"/>
<feColorMatrix in="SourceAlpha" type="matrix" values="0 0 0 0 0 0 0 0 0 0 0 0 0 0 0 0 0 0 127 0" result="hardAlpha"/>
<feOffset dx="7" dy="8"/>
<feGaussianBlur stdDeviation="4.5"/>
<feComposite in2="hardAlpha" operator="out"/>
<feColorMatrix type="matrix" values="0 0 0 0 0 0 0 0 0 0 0 0 0 0 0 0 0 0 0.25 0"/>
<feBlend mode="normal" in2="BackgroundImageFix" result="effect1_dropShadow"/>
<feBlend mode="normal" in="SourceGraphic" in2="effect1_dropShadow" result="shape"/>
</filter>
<filter id="filter6_d" x="262.92" y="36.7505" width="379.931" height="113.52" filterUnits="userSpaceOnUse" color-interpolation-filters="sRGB">
<feFlood flood-opacity="0" result="BackgroundImageFix"/>
<feColorMatrix in="SourceAlpha" type="matrix" values="0 0 0 0 0 0 0 0 0 0 0 0 0 0 0 0 0 0 127 0" result="hardAlpha"/>
<feOffset dx="9" dy="2"/>
<feGaussianBlur stdDeviation="3"/>
<feComposite in2="hardAlpha" operator="out"/>
<feColorMatrix type="matrix" values="0 0 0 0 0 0 0 0 0 0 0 0 0 0 0 0 0 0 0.25 0"/>
<feBlend mode="normal" in2="BackgroundImageFix" result="effect1_dropShadow"/>
<feBlend mode="normal" in="SourceGraphic" in2="effect1_dropShadow" result="shape"/>
</filter>
<radialGradient id="paint0_radial" cx="0" cy="0" r="1" gradientUnits="userSpaceOnUse" gradientTransform="translate(156.155 122.155) rotate(90) scale(45.1549)">
<stop stop-color="#F4CC1C"/>
<stop offset="0.598958" stop-color="#DF8814"/>
</radialGradient>
<radialGradient id="paint1_radial" cx="0" cy="0" r="1" gradientUnits="userSpaceOnUse" gradientTransform="translate(156.199 118.445) rotate(90) scale(45.1549)">
<stop stop-color="#F4CC1C"/>
<stop offset="0.598958" stop-color="#DF8814"/>
</radialGradient>
<radialGradient id="paint2_radial" cx="0" cy="0" r="1" gradientUnits="userSpaceOnUse" gradientTransform="translate(156.199 117.796) rotate(90) scale(36.2214)">
<stop offset="0.380208" stop-color="#EFC224"/>
<stop offset="0.661458" stop-color="#EC9F19"/>
<stop offset="1" stop-color="#DC7414"/>
</radialGradient>
<linearGradient id="paint3_linear" x1="171.221" y1="136.376" x2="133.388" y2="109.436" gradientUnits="userSpaceOnUse">
<stop stop-color="white"/>
<stop offset="0.416667" stop-color="white" stop-opacity="0.583333"/>
<stop offset="0.416767" stop-color="white"/>
<stop offset="1" stop-color="white" stop-opacity="0"/>
</linearGradient>
<radialGradient id="paint4_radial" cx="0" cy="0" r="1" gradientUnits="userSpaceOnUse" gradientTransform="translate(137.507 147.313) rotate(90) scale(28.8672 51.0893)">
<stop stop-color="#5FCAFF"/>
<stop offset="1" stop-color="#0087C9"/>
</radialGradient>
<radialGradient id="paint5_radial" cx="0" cy="0" r="1" gradientUnits="userSpaceOnUse" gradientTransform="translate(137.089 197.895) rotate(88.0672) scale(3.89617 28.783)">
<stop stop-color="#BABABA"/>
<stop offset="1" stop-color="#42BDF9" stop-opacity="0"/>
</radialGradient>
<radialGradient id="paint6_radial" cx="0" cy="0" r="1" gradientUnits="userSpaceOnUse" gradientTransform="translate(137.492 147.313) rotate(90) scale(28.8672 51.0893)">
<stop stop-color="#5FCAFF"/>
<stop offset="1" stop-color="#22ADF1"/>
</radialGradient>
<linearGradient id="paint7_linear" x1="171.205" y1="136.376" x2="133.373" y2="109.436" gradientUnits="userSpaceOnUse">
<stop stop-color="white"/>
<stop offset="0.416667" stop-color="white" stop-opacity="0.583333"/>
<stop offset="0.416767" stop-color="white"/>
<stop offset="1" stop-color="white" stop-opacity="0"/>
</linearGradient>
<radialGradient id="paint8_radial" cx="0" cy="0" r="1" gradientUnits="userSpaceOnUse" gradientTransform="translate(104.158 208.778) rotate(-6.86777) scale(114.641 43.2909)">
<stop offset="0.390625" stop-color="white"/>
<stop offset="0.75" stop-color="white" stop-opacity="0"/>
</radialGradient>
<radialGradient id="paint9_radial" cx="0" cy="0" r="1" gradientUnits="userSpaceOnUse" gradientTransform="translate(89.2535 84.1391) rotate(93.0416) scale(80.1335 30.338)">
<stop offset="0.192708" stop-color="white"/>
<stop offset="1" stop-color="white" stop-opacity="0"/>
</radialGradient>
<radialGradient id="paint10_radial" cx="0" cy="0" r="1" gradientUnits="userSpaceOnUse" gradientTransform="translate(96.8945 70.4262) rotate(90.9723) scale(114.836 43.2175)">
<stop offset="0.390625" stop-color="white"/>
<stop offset="0.75" stop-color="white" stop-opacity="0"/>
</radialGradient>
<linearGradient id="paint11_linear" x1="478" y1="240.791" x2="767.5" y2="235.791" gradientUnits="userSpaceOnUse">
<stop stop-color="#79A7BD"/>
<stop offset="1" stop-color="#033F5C"/>
</linearGradient>
<radialGradient id="paint12_radial" cx="0" cy="0" r="1" gradientUnits="userSpaceOnUse" gradientTransform="translate(457.5 86.7905) rotate(90) scale(62.5 194.5)">
<stop offset="0.192708" stop-color="#EFC224"/>
<stop offset="0.760417" stop-color="#DF8814"/>
</radialGradient>
</defs>
</svg>
